<svg width="99" height="99" viewBox="0 0 99 99" fill="none" xmlns="http://www.w3.org/2000/svg">
<circle cx="49.5" cy="49.5" r="49.5" fill="url(#paint0_linear_1903_29079)"/>
<path d="M89.0771 49.5386C89.0771 71.3751 71.3751 89.0771 49.5386 89.0771C27.702 89.0771 10 71.3751 10 49.5386C10 27.702 27.702 10 49.5386 10C71.3751 10 89.0771 27.702 89.0771 49.5386Z" fill="url(#paint1_linear_1903_29079)"/>
<rect x="30" y="30" width="39.6216" height="39.6216" rx="19.8108" fill="#F3F3F3"/>
<path d="M55.2754 46.146C56.3258 46.5778 57.2319 47.1805 57.9858 48.0028C59.0248 49.1203 59.6869 50.5357 59.8786 52.0495C60.0638 53.4241 59.9678 54.7647 59.3317 56.0199C58.3571 57.9419 56.9226 59.369 54.8223 60.0168C53.3698 60.4651 51.9045 60.8656 50.4413 61.2858C49.4956 61.5585 48.5495 61.8311 47.6031 62.1038C46.3246 62.4709 45.159 61.8492 44.7861 60.5733C43.8874 57.4942 42.9959 54.413 42.1117 51.3296C41.235 48.294 40.3584 45.2591 39.482 42.2249C39.1212 40.9793 39.7701 39.7878 41.0157 39.426C43.3853 38.7384 45.755 38.0519 48.1246 37.3665C49.6456 36.9256 51.1146 37.1251 52.5231 37.7835C54.5417 38.7278 55.5725 40.401 55.8955 42.5491C56.0775 43.7597 55.8547 44.9189 55.3263 46.0208C55.3072 46.0531 55.2961 46.0908 55.2754 46.146ZM53.0515 59.1276C53.4684 59.0099 53.886 58.8947 54.3019 58.7738C57.1492 57.9451 59.0054 55.0209 58.5364 52.1047C58.1306 49.5704 56.2876 47.6362 53.7708 47.1057C53.5056 47.05 53.2366 47.0171 52.9485 46.9704C53.0085 46.9067 53.0499 46.8595 53.0944 46.8165C54.0563 45.8919 54.5677 44.7592 54.6069 43.4297C54.6435 42.2053 54.2303 41.1215 53.4764 40.1666C52.496 38.9241 51.2074 38.3246 49.6297 38.4498C49.0487 38.496 48.4721 38.6705 47.906 38.8307C45.784 39.432 43.6647 40.0445 41.5483 40.6684C40.9191 40.8525 40.6258 41.4997 40.8672 42.1199C40.8816 42.227 40.9016 42.3332 40.9271 42.4382C42.6148 48.2887 44.3044 54.1383 45.9956 59.9871C46.184 60.638 46.7585 60.9606 47.4105 60.777C47.9785 60.6168 48.5462 60.4541 49.1135 60.2889C50.4263 59.9034 51.739 59.5163 53.0515 59.1276Z" fill="#803588"/>
<path d="M53.0492 59.1279C51.7353 59.5169 50.4212 59.904 49.1069 60.2892C48.5411 60.455 47.9734 60.6177 47.404 60.7772C46.752 60.9608 46.1774 60.6382 45.9891 59.9873C44.2999 54.1386 42.6113 48.2896 40.9232 42.4406C40.8977 42.3356 40.8777 42.2293 40.8633 42.1222C40.9338 42.0692 40.9975 41.9939 41.0755 41.9689C41.7195 41.7702 42.3653 41.5771 43.0129 41.3896C44.084 41.0809 45.1546 40.7716 46.2294 40.4766C46.6899 40.3503 47.1552 40.2071 47.6263 40.1631C48.6224 40.0638 49.6208 40.3275 50.438 40.9058C51.1924 41.4267 51.7171 42.126 52.0964 42.961C52.4805 43.8061 52.5834 44.6825 52.4651 45.5807C52.3372 46.5467 51.8985 47.3844 51.2449 48.1054C51.1494 48.2115 51.0237 48.2889 50.881 48.4046C51.3239 48.4619 51.6884 48.4778 52.037 48.5611C52.7712 48.7367 53.4577 49.0269 54.0725 49.4826C54.6731 49.9277 55.1866 50.4487 55.5723 51.0885C56.002 51.7967 56.2917 52.5585 56.3601 53.3861C56.4662 54.6487 56.2381 55.8445 55.5564 56.9321C55.1177 57.6329 54.5622 58.2202 53.8587 58.6578C53.5924 58.8218 53.3197 58.9719 53.0492 59.1279Z" fill="#803588"/>
<path d="M53.051 59.1288C53.32 58.9728 53.5926 58.8227 53.8568 58.6587C54.5619 58.2211 55.1173 57.6338 55.5545 56.933C56.2362 55.8454 56.4627 54.6518 56.3582 53.387C56.2898 52.5594 56.0001 51.7955 55.5704 51.0894C55.1826 50.4496 54.6712 49.9286 54.0706 49.4835C53.4558 49.0278 52.7693 48.7376 52.0351 48.562C51.6865 48.4787 51.322 48.4628 50.8791 48.4055C51.0218 48.2898 51.1475 48.2113 51.243 48.1063C51.8976 47.3858 52.3364 46.5476 52.4632 45.5816C52.5815 44.6834 52.4786 43.807 52.0945 42.9619C51.7152 42.1269 51.1926 41.4276 50.4361 40.9067C49.6189 40.3284 48.6205 40.0647 47.6244 40.164C47.1533 40.208 46.688 40.3512 46.2275 40.4775C45.1527 40.7725 44.0821 41.0817 43.011 41.3905C42.3634 41.5776 41.7176 41.7707 41.0736 41.9698C40.994 41.9948 40.9303 42.0706 40.8614 42.1231C40.62 41.503 40.9144 40.8557 41.5426 40.6717C43.6621 40.0506 45.7829 39.437 47.905 38.8308C48.4711 38.6716 49.0477 38.496 49.6286 38.4499C51.2064 38.3247 52.4934 38.9241 53.4754 40.1666C54.2293 41.1215 54.6425 42.2054 54.6059 43.4298C54.5667 44.7593 54.0552 45.8919 53.0934 46.8166C53.0489 46.8596 53.0075 46.9068 52.9475 46.9705C53.2356 47.0171 53.5051 47.05 53.7698 47.1057C56.2855 47.6362 58.1296 49.5705 58.537 52.1048C59.006 55.0226 57.1497 57.9452 54.3025 58.7739C53.8871 58.8959 53.4696 59.011 53.051 59.1288Z" fill="#4C215C"/>
<defs>
<linearGradient id="paint0_linear_1903_29079" x1="49.5" y1="0" x2="49.5" y2="99" gradientUnits="userSpaceOnUse">
<stop stop-color="#AB69FF"/>
<stop offset="1" stop-color="#A004FF" stop-opacity="0.65"/>
</linearGradient>
<linearGradient id="paint1_linear_1903_29079" x1="49.5386" y1="10" x2="49.5386" y2="89.0771" gradientUnits="userSpaceOnUse">
<stop stop-color="#AB69FF"/>
<stop offset="1" stop-color="#A004FF" stop-opacity="0.65"/>
</linearGradient>
</defs>
</svg>
